<svg width="238" height="52" viewBox="0 0 238 52" fill="none" xmlns="http://www.w3.org/2000/svg">
<path d="M65.4 27V10.488H72.984C74.024 10.488 74.848 10.616 75.456 10.872C76.08 11.112 76.536 11.464 76.824 11.928C77.128 12.376 77.328 12.904 77.424 13.512C77.52 14.12 77.568 14.768 77.568 15.456C77.568 16.048 77.512 16.664 77.4 17.304C77.304 17.928 77.072 18.496 76.704 19.008C76.352 19.52 75.792 19.896 75.024 20.136L77.808 27H75.6L72.864 20.064L73.44 20.352C73.328 20.384 73.192 20.408 73.032 20.424C72.872 20.44 72.656 20.448 72.384 20.448H67.464V27H65.4ZM67.464 18.648H72.096C72.896 18.648 73.52 18.584 73.968 18.456C74.432 18.328 74.768 18.128 74.976 17.856C75.2 17.584 75.344 17.256 75.408 16.872C75.472 16.472 75.504 16 75.504 15.456C75.504 14.912 75.472 14.448 75.408 14.064C75.36 13.664 75.232 13.336 75.024 13.08C74.832 12.808 74.512 12.608 74.064 12.48C73.632 12.336 73.032 12.264 72.264 12.264H67.464V18.648ZM81.7359 27V10.488H92.4639V12.264H83.7999V17.76H91.3359V19.56H83.7999V25.224H92.4639V27H81.7359ZM94.4689 27L100.709 10.488H103.301L109.517 27H107.381L105.677 22.488H98.2609L96.5569 27H94.4689ZM98.8849 20.688H105.053L102.029 12.6H101.909L98.8849 20.688ZM112.603 27V10.488H117.835C119.195 10.488 120.307 10.552 121.171 10.68C122.035 10.808 122.715 11.04 123.211 11.376C123.723 11.712 124.099 12.192 124.339 12.816C124.579 13.44 124.731 14.232 124.795 15.192C124.859 16.152 124.891 17.336 124.891 18.744C124.891 20.152 124.859 21.336 124.795 22.296C124.731 23.256 124.579 24.048 124.339 24.672C124.099 25.296 123.723 25.776 123.211 26.112C122.715 26.448 122.035 26.68 121.171 26.808C120.307 26.936 119.195 27 117.835 27H112.603ZM114.667 25.224H117.499C118.507 25.224 119.339 25.2 119.995 25.152C120.651 25.104 121.171 24.984 121.555 24.792C121.939 24.584 122.219 24.256 122.395 23.808C122.571 23.344 122.683 22.704 122.731 21.888C122.795 21.072 122.827 20.024 122.827 18.744C122.827 17.464 122.795 16.424 122.731 15.624C122.683 14.808 122.563 14.168 122.371 13.704C122.195 13.24 121.915 12.912 121.531 12.72C121.147 12.512 120.627 12.384 119.971 12.336C119.331 12.288 118.507 12.264 117.499 12.264H114.667V25.224ZM129.15 27V10.488H136.83C137.918 10.488 138.782 10.656 139.422 10.992C140.062 11.328 140.518 11.808 140.79 12.432C141.062 13.04 141.198 13.776 141.198 14.64C141.198 15.344 141.102 15.968 140.91 16.512C140.718 17.04 140.414 17.472 139.998 17.808C139.598 18.144 139.062 18.384 138.39 18.528V18.624C139.206 18.768 139.83 19.032 140.262 19.416C140.694 19.784 140.99 20.248 141.15 20.808C141.31 21.368 141.39 21.984 141.39 22.656C141.39 23.232 141.318 23.784 141.174 24.312C141.046 24.84 140.814 25.304 140.478 25.704C140.158 26.104 139.694 26.424 139.086 26.664C138.478 26.888 137.694 27 136.734 27H129.15ZM131.214 25.224H136.254C137.038 25.224 137.654 25.136 138.102 24.96C138.55 24.768 138.862 24.464 139.038 24.048C139.23 23.616 139.326 23.064 139.326 22.392C139.326 21.704 139.222 21.152 139.014 20.736C138.822 20.304 138.502 20 138.054 19.824C137.606 19.632 137.006 19.536 136.254 19.536H131.214V25.224ZM131.214 17.736H136.158C136.83 17.736 137.382 17.64 137.814 17.448C138.262 17.256 138.59 16.96 138.798 16.56C139.022 16.144 139.134 15.632 139.134 15.024C139.134 14.352 139.046 13.816 138.87 13.416C138.71 13.016 138.414 12.728 137.982 12.552C137.55 12.36 136.942 12.264 136.158 12.264H131.214V17.736ZM151.701 27.192C150.421 27.192 149.357 27.128 148.509 27C147.677 26.856 147.013 26.608 146.517 26.256C146.037 25.904 145.685 25.416 145.461 24.792C145.237 24.152 145.093 23.344 145.029 22.368C144.965 21.376 144.933 20.168 144.933 18.744C144.933 17.32 144.965 16.12 145.029 15.144C145.093 14.152 145.237 13.344 145.461 12.72C145.685 12.08 146.037 11.584 146.517 11.232C147.013 10.88 147.677 10.64 148.509 10.512C149.357 10.368 150.421 10.296 151.701 10.296C152.981 10.296 154.037 10.368 154.869 10.512C155.717 10.64 156.381 10.88 156.861 11.232C157.357 11.584 157.717 12.08 157.941 12.72C158.165 13.344 158.309 14.152 158.373 15.144C158.437 16.12 158.469 17.32 158.469 18.744C158.469 20.168 158.437 21.376 158.373 22.368C158.309 23.344 158.165 24.152 157.941 24.792C157.717 25.416 157.357 25.904 156.861 26.256C156.381 26.608 155.717 26.856 154.869 27C154.037 27.128 152.981 27.192 151.701 27.192ZM151.701 25.416C152.581 25.416 153.309 25.392 153.885 25.344C154.461 25.28 154.917 25.144 155.253 24.936C155.589 24.728 155.845 24.392 156.021 23.928C156.197 23.448 156.301 22.792 156.333 21.96C156.381 21.128 156.405 20.056 156.405 18.744C156.405 17.432 156.381 16.36 156.333 15.528C156.301 14.696 156.197 14.048 156.021 13.584C155.845 13.104 155.589 12.76 155.253 12.552C154.917 12.344 154.461 12.216 153.885 12.168C153.309 12.104 152.581 12.072 151.701 12.072C150.821 12.072 150.093 12.104 149.517 12.168C148.957 12.216 148.501 12.344 148.149 12.552C147.813 12.76 147.557 13.104 147.381 13.584C147.221 14.048 147.117 14.696 147.069 15.528C147.021 16.36 146.997 17.432 146.997 18.744C146.997 20.056 147.021 21.128 147.069 21.96C147.117 22.792 147.221 23.448 147.381 23.928C147.557 24.392 147.813 24.728 148.149 24.936C148.501 25.144 148.957 25.28 149.517 25.344C150.093 25.392 150.821 25.416 151.701 25.416ZM168.905 27.192C167.625 27.192 166.561 27.128 165.713 27C164.881 26.856 164.217 26.608 163.721 26.256C163.241 25.904 162.889 25.416 162.665 24.792C162.441 24.152 162.297 23.344 162.233 22.368C162.169 21.376 162.137 20.168 162.137 18.744C162.137 17.32 162.169 16.12 162.233 15.144C162.297 14.152 162.441 13.344 162.665 12.72C162.889 12.08 163.241 11.584 163.721 11.232C164.217 10.88 164.881 10.64 165.713 10.512C166.561 10.368 167.625 10.296 168.905 10.296C170.185 10.296 171.241 10.368 172.073 10.512C172.921 10.64 173.585 10.88 174.065 11.232C174.561 11.584 174.921 12.08 175.145 12.72C175.369 13.344 175.513 14.152 175.577 15.144C175.641 16.12 175.673 17.32 175.673 18.744C175.673 20.168 175.641 21.376 175.577 22.368C175.513 23.344 175.369 24.152 175.145 24.792C174.921 25.416 174.561 25.904 174.065 26.256C173.585 26.608 172.921 26.856 172.073 27C171.241 27.128 170.185 27.192 168.905 27.192ZM168.905 25.416C169.785 25.416 170.513 25.392 171.089 25.344C171.665 25.28 172.121 25.144 172.457 24.936C172.793 24.728 173.049 24.392 173.225 23.928C173.401 23.448 173.505 22.792 173.536 21.96C173.585 21.128 173.609 20.056 173.609 18.744C173.609 17.432 173.585 16.36 173.536 15.528C173.505 14.696 173.401 14.048 173.225 13.584C173.049 13.104 172.793 12.76 172.457 12.552C172.121 12.344 171.665 12.216 171.089 12.168C170.513 12.104 169.785 12.072 168.905 12.072C168.025 12.072 167.297 12.104 166.721 12.168C166.161 12.216 165.705 12.344 165.353 12.552C165.017 12.76 164.761 13.104 164.585 13.584C164.425 14.048 164.321 14.696 164.273 15.528C164.225 16.36 164.201 17.432 164.201 18.744C164.201 20.056 164.225 21.128 164.273 21.96C164.321 22.792 164.425 23.448 164.585 23.928C164.761 24.392 165.017 24.728 165.353 24.936C165.705 25.144 166.161 25.28 166.721 25.344C167.297 25.392 168.025 25.416 168.905 25.416ZM179.916 27V10.488H181.98V17.712H184.932L190.596 10.488H192.876L186.612 18.504L192.948 27H190.548L184.932 19.512H181.98V27H179.916Z" fill="black"/>
<path d="M64.6 46V34.992H69.656C70.3493 34.992 70.8987 35.0773 71.304 35.248C71.72 35.408 72.024 35.6427 72.216 35.952C72.4187 36.2507 72.552 36.6027 72.616 37.008C72.68 37.4133 72.712 37.8453 72.712 38.304C72.712 38.6987 72.6747 39.1093 72.6 39.536C72.536 39.952 72.3813 40.3307 72.136 40.672C71.9013 41.0133 71.528 41.264 71.016 41.424L72.872 46H71.4L69.576 41.376L69.96 41.568C69.8853 41.5893 69.7947 41.6053 69.688 41.616C69.5813 41.6267 69.4373 41.632 69.256 41.632H65.976V46H64.6ZM65.976 40.432H69.064C69.5973 40.432 70.0133 40.3893 70.312 40.304C70.6213 40.2187 70.8453 40.0853 70.984 39.904C71.1333 39.7227 71.2293 39.504 71.272 39.248C71.3147 38.9813 71.336 38.6667 71.336 38.304C71.336 37.9413 71.3147 37.632 71.272 37.376C71.24 37.1093 71.1547 36.8907 71.016 36.72C70.888 36.5387 70.6747 36.4053 70.376 36.32C70.088 36.224 69.688 36.176 69.176 36.176H65.976V40.432ZM78.5946 46.128C77.9333 46.128 77.3786 46.0853 76.9306 46C76.4933 45.9147 76.1413 45.776 75.8746 45.584C75.608 45.3813 75.4053 45.12 75.2666 44.8C75.128 44.4693 75.0373 44.0693 74.9946 43.6C74.952 43.1307 74.9306 42.576 74.9306 41.936C74.9306 41.1787 74.9626 40.5333 75.0266 40C75.0906 39.456 75.2346 39.0187 75.4586 38.688C75.6933 38.3467 76.056 38.1013 76.5466 37.952C77.0373 37.792 77.6986 37.712 78.5306 37.712C79.16 37.712 79.672 37.76 80.0666 37.856C80.472 37.952 80.792 38.1013 81.0266 38.304C81.2613 38.5067 81.432 38.7787 81.5386 39.12C81.656 39.4507 81.7306 39.8507 81.7626 40.32C81.7946 40.7787 81.8106 41.312 81.8106 41.92V42.352H76.2266C76.2266 42.9067 76.2533 43.36 76.3066 43.712C76.36 44.064 76.4666 44.336 76.6266 44.528C76.7973 44.72 77.0586 44.8533 77.4106 44.928C77.7733 45.0027 78.264 45.04 78.8826 45.04C79.1386 45.04 79.4213 45.0347 79.7306 45.024C80.04 45.0027 80.3493 44.976 80.6586 44.944C80.968 44.912 81.2453 44.88 81.4906 44.848V45.904C81.2666 45.9467 80.9893 45.984 80.6586 46.016C80.3386 46.048 79.9973 46.0747 79.6346 46.096C79.2826 46.1173 78.936 46.128 78.5946 46.128ZM80.5466 41.696V41.264C80.5466 40.7093 80.5146 40.272 80.4506 39.952C80.3866 39.6213 80.2746 39.376 80.1146 39.216C79.9653 39.0453 79.7573 38.9333 79.4906 38.88C79.224 38.8267 78.8933 38.8 78.4986 38.8C77.9866 38.8 77.5813 38.8373 77.2826 38.912C76.984 38.976 76.76 39.0987 76.6106 39.28C76.4613 39.4613 76.36 39.7227 76.3066 40.064C76.2533 40.4053 76.2266 40.8587 76.2266 41.424H80.8506L80.5466 41.696ZM86.3961 46.128C85.7988 46.128 85.2975 46.0587 84.8921 45.92C84.4975 45.7813 84.1988 45.5413 83.9961 45.2C83.8041 44.8587 83.7081 44.3787 83.7081 43.76C83.7081 43.1413 83.7775 42.656 83.9161 42.304C84.0655 41.9413 84.3215 41.6853 84.6841 41.536C85.0468 41.3867 85.5535 41.312 86.2041 41.312C86.3108 41.312 86.4761 41.3173 86.7001 41.328C86.9348 41.328 87.2015 41.3333 87.5001 41.344C87.7988 41.344 88.0975 41.3493 88.3961 41.36C88.7055 41.36 88.9881 41.3653 89.2441 41.376V40.864C89.2441 40.384 89.2121 40.0107 89.1481 39.744C89.0948 39.4667 88.9775 39.264 88.7961 39.136C88.6148 38.9973 88.3588 38.912 88.0281 38.88C87.7081 38.8373 87.2815 38.816 86.7481 38.816C86.5135 38.816 86.2361 38.8267 85.9161 38.848C85.5961 38.8587 85.2815 38.88 84.9721 38.912C84.6735 38.9333 84.4335 38.96 84.2521 38.992V37.936C84.6575 37.8613 85.1108 37.808 85.6121 37.776C86.1241 37.7333 86.6521 37.712 87.1961 37.712C87.7721 37.712 88.2575 37.7493 88.6521 37.824C89.0575 37.888 89.3828 37.9947 89.6281 38.144C89.8841 38.2933 90.0761 38.4907 90.2041 38.736C90.3321 38.9813 90.4175 39.28 90.4601 39.632C90.5135 39.984 90.5401 40.3947 90.5401 40.864V46H89.3721L89.3241 44.848H89.2281C89.0575 45.2213 88.8121 45.504 88.4921 45.696C88.1828 45.8773 87.8415 45.9947 87.4681 46.048C87.0948 46.1013 86.7375 46.128 86.3961 46.128ZM86.8761 45.056C87.1855 45.056 87.4735 45.04 87.7401 45.008C88.0068 44.9653 88.2415 44.8907 88.4441 44.784C88.6468 44.6773 88.8068 44.5173 88.9241 44.304C89.0415 44.08 89.1215 43.84 89.1641 43.584C89.2175 43.3173 89.2441 43.008 89.2441 42.656V42.24H86.5241C86.1081 42.24 85.7881 42.272 85.5641 42.336C85.3401 42.4 85.1855 42.5333 85.1001 42.736C85.0255 42.9387 84.9881 43.2427 84.9881 43.648C84.9881 44.0427 85.0361 44.3413 85.1321 44.544C85.2281 44.7467 85.4095 44.8853 85.6761 44.96C85.9535 45.024 86.3535 45.056 86.8761 45.056ZM95.9855 46.128C95.3988 46.128 94.9082 46.064 94.5135 45.936C94.1295 45.808 93.8255 45.5893 93.6015 45.28C93.3775 44.96 93.2175 44.528 93.1215 43.984C93.0255 43.44 92.9775 42.7573 92.9775 41.936C92.9775 41.104 93.0202 40.416 93.1055 39.872C93.2015 39.3173 93.3615 38.8853 93.5855 38.576C93.8095 38.2667 94.1135 38.048 94.4975 37.92C94.8815 37.7813 95.3668 37.712 95.9535 37.712C96.3908 37.712 96.7802 37.7493 97.1215 37.824C97.4628 37.888 97.7562 38.0053 98.0015 38.176C98.2575 38.3467 98.4602 38.5813 98.6095 38.88H98.6895V34.112H100.002V46H98.8335L98.7695 44.832H98.6735C98.5242 45.2053 98.3055 45.488 98.0175 45.68C97.7402 45.8613 97.4255 45.9787 97.0735 46.032C96.7215 46.096 96.3588 46.128 95.9855 46.128ZM96.4975 44.976C97.0415 44.976 97.4735 44.9013 97.7935 44.752C98.1135 44.6027 98.3375 44.368 98.4655 44.048C98.5722 43.7493 98.6362 43.424 98.6575 43.072C98.6788 42.72 98.6895 42.304 98.6895 41.824C98.6895 41.4293 98.6788 41.072 98.6575 40.752C98.6362 40.4213 98.5775 40.1333 98.4815 39.888C98.3428 39.5253 98.1135 39.2693 97.7935 39.12C97.4735 38.96 97.0308 38.88 96.4655 38.88C95.9855 38.88 95.6015 38.912 95.3135 38.976C95.0255 39.04 94.8068 39.1787 94.6575 39.392C94.5082 39.5947 94.4068 39.8987 94.3535 40.304C94.3002 40.6987 94.2735 41.2373 94.2735 41.92C94.2735 42.6027 94.3002 43.1467 94.3535 43.552C94.4068 43.9573 94.5082 44.2613 94.6575 44.464C94.8068 44.6667 95.0255 44.8053 95.3135 44.88C95.6122 44.944 96.0068 44.976 96.4975 44.976ZM110.533 46.128C110.159 46.128 109.797 46.096 109.445 46.032C109.093 45.9787 108.778 45.8613 108.501 45.68C108.223 45.488 108.005 45.2053 107.845 44.832H107.749L107.701 46H106.517V34.112H107.829V38.88H107.909C108.058 38.5813 108.255 38.3467 108.501 38.176C108.757 38.0053 109.055 37.888 109.397 37.824C109.738 37.7493 110.127 37.712 110.565 37.712C111.151 37.712 111.637 37.7813 112.021 37.92C112.405 38.048 112.709 38.2667 112.933 38.576C113.157 38.8853 113.311 39.312 113.397 39.856C113.493 40.4 113.541 41.088 113.541 41.92C113.541 42.752 113.493 43.44 113.397 43.984C113.301 44.528 113.141 44.9547 112.917 45.264C112.693 45.5733 112.383 45.7973 111.989 45.936C111.605 46.064 111.119 46.128 110.533 46.128ZM110.021 44.976C110.511 44.976 110.901 44.944 111.189 44.88C111.487 44.8053 111.711 44.6667 111.861 44.464C112.01 44.2613 112.111 43.9573 112.165 43.552C112.218 43.1467 112.245 42.6027 112.245 41.92C112.245 41.2373 112.218 40.6987 112.165 40.304C112.111 39.8987 112.01 39.5947 111.861 39.392C111.711 39.1787 111.487 39.04 111.189 38.976C110.901 38.912 110.511 38.88 110.021 38.88C109.498 38.88 109.082 38.9493 108.773 39.088C108.463 39.216 108.245 39.424 108.117 39.712C107.989 39.9893 107.909 40.3093 107.877 40.672C107.845 41.024 107.829 41.44 107.829 41.92C107.829 42.3893 107.839 42.8053 107.861 43.168C107.893 43.52 107.973 43.8347 108.101 44.112C108.239 44.4107 108.463 44.6293 108.773 44.768C109.082 44.9067 109.498 44.976 110.021 44.976ZM119.186 46.128C118.514 46.128 117.954 46.0853 117.506 46C117.069 45.9253 116.722 45.7973 116.466 45.616C116.21 45.4347 116.018 45.184 115.89 44.864C115.773 44.544 115.698 44.144 115.666 43.664C115.634 43.1733 115.618 42.592 115.618 41.92C115.618 41.248 115.634 40.672 115.666 40.192C115.698 39.7013 115.773 39.296 115.89 38.976C116.018 38.656 116.21 38.4053 116.466 38.224C116.722 38.0427 117.069 37.9147 117.506 37.84C117.954 37.7547 118.514 37.712 119.186 37.712C119.869 37.712 120.429 37.7547 120.866 37.84C121.303 37.9147 121.65 38.0427 121.906 38.224C122.173 38.4053 122.365 38.656 122.482 38.976C122.61 39.296 122.69 39.7013 122.722 40.192C122.754 40.672 122.77 41.248 122.77 41.92C122.77 42.592 122.754 43.1733 122.722 43.664C122.69 44.144 122.61 44.544 122.482 44.864C122.365 45.184 122.173 45.4347 121.906 45.616C121.65 45.7973 121.303 45.9253 120.866 46C120.429 46.0853 119.869 46.128 119.186 46.128ZM119.186 45.024C119.762 45.024 120.205 44.9867 120.514 44.912C120.823 44.8373 121.042 44.6933 121.17 44.48C121.309 44.2667 121.389 43.9573 121.41 43.552C121.442 43.136 121.458 42.592 121.458 41.92C121.458 41.248 121.442 40.7093 121.41 40.304C121.389 39.888 121.309 39.5733 121.17 39.36C121.042 39.1467 120.823 39.0027 120.514 38.928C120.205 38.8533 119.762 38.816 119.186 38.816C118.621 38.816 118.178 38.8533 117.858 38.928C117.549 39.0027 117.33 39.1467 117.202 39.36C117.074 39.5733 116.994 39.888 116.962 40.304C116.93 40.7093 116.914 41.248 116.914 41.92C116.914 42.592 116.93 43.136 116.962 43.552C116.994 43.9573 117.074 44.2667 117.202 44.48C117.33 44.6933 117.549 44.8373 117.858 44.912C118.178 44.9867 118.621 45.024 119.186 45.024ZM128.421 46.128C127.749 46.128 127.189 46.0853 126.741 46C126.303 45.9253 125.957 45.7973 125.701 45.616C125.445 45.4347 125.253 45.184 125.125 44.864C125.007 44.544 124.933 44.144 124.901 43.664C124.869 43.1733 124.853 42.592 124.853 41.92C124.853 41.248 124.869 40.672 124.901 40.192C124.933 39.7013 125.007 39.296 125.125 38.976C125.253 38.656 125.445 38.4053 125.701 38.224C125.957 38.0427 126.303 37.9147 126.741 37.84C127.189 37.7547 127.749 37.712 128.421 37.712C129.103 37.712 129.663 37.7547 130.101 37.84C130.538 37.9147 130.885 38.0427 131.141 38.224C131.407 38.4053 131.599 38.656 131.717 38.976C131.845 39.296 131.925 39.7013 131.957 40.192C131.989 40.672 132.005 41.248 132.005 41.92C132.005 42.592 131.989 43.1733 131.957 43.664C131.925 44.144 131.845 44.544 131.717 44.864C131.599 45.184 131.407 45.4347 131.141 45.616C130.885 45.7973 130.538 45.9253 130.101 46C129.663 46.0853 129.103 46.128 128.421 46.128ZM128.421 45.024C128.997 45.024 129.439 44.9867 129.749 44.912C130.058 44.8373 130.277 44.6933 130.405 44.48C130.543 44.2667 130.623 43.9573 130.645 43.552C130.677 43.136 130.693 42.592 130.693 41.92C130.693 41.248 130.677 40.7093 130.645 40.304C130.623 39.888 130.543 39.5733 130.405 39.36C130.277 39.1467 130.058 39.0027 129.749 38.928C129.439 38.8533 128.997 38.816 128.421 38.816C127.855 38.816 127.413 38.8533 127.093 38.928C126.783 39.0027 126.565 39.1467 126.437 39.36C126.309 39.5733 126.229 39.888 126.197 40.304C126.165 40.7093 126.149 41.248 126.149 41.92C126.149 42.592 126.165 43.136 126.197 43.552C126.229 43.9573 126.309 44.2667 126.437 44.48C126.565 44.6933 126.783 44.8373 127.093 44.912C127.413 44.9867 127.855 45.024 128.421 45.024ZM134.423 46V34.112H135.735V41.312H136.759L139.639 37.84H141.111L137.799 41.792L141.159 46H139.639L136.759 42.432H135.735V46H134.423ZM145.58 46.128C145.271 46.128 144.94 46.1173 144.588 46.096C144.236 46.0747 143.89 46.048 143.548 46.016C143.207 45.9947 142.898 45.9627 142.62 45.92V44.864C142.876 44.8853 143.122 44.9067 143.356 44.928C143.602 44.9493 143.842 44.9707 144.076 44.992C144.311 45.0027 144.546 45.0133 144.78 45.024C145.015 45.024 145.255 45.024 145.5 45.024C146.055 45.024 146.455 44.9867 146.7 44.912C146.956 44.8267 147.122 44.688 147.196 44.496C147.282 44.304 147.324 44.0533 147.324 43.744C147.324 43.392 147.292 43.136 147.228 42.976C147.175 42.816 147.074 42.7147 146.924 42.672C146.786 42.6187 146.572 42.576 146.284 42.544L144.172 42.304C143.671 42.2507 143.292 42.144 143.036 41.984C142.78 41.8133 142.604 41.5733 142.508 41.264C142.412 40.9547 142.364 40.5653 142.364 40.096C142.364 39.5627 142.439 39.136 142.588 38.816C142.738 38.496 142.951 38.256 143.228 38.096C143.506 37.936 143.842 37.8347 144.236 37.792C144.631 37.7387 145.074 37.712 145.564 37.712C145.842 37.712 146.135 37.7227 146.444 37.744C146.754 37.7653 147.058 37.792 147.356 37.824C147.655 37.856 147.911 37.8933 148.124 37.936V38.992C147.847 38.9493 147.564 38.9173 147.276 38.896C146.999 38.864 146.711 38.8427 146.412 38.832C146.124 38.8213 145.831 38.816 145.532 38.816C145.127 38.816 144.78 38.8373 144.492 38.88C144.204 38.9227 143.986 39.0293 143.836 39.2C143.698 39.3707 143.628 39.6533 143.628 40.048C143.628 40.3573 143.65 40.592 143.692 40.752C143.746 40.9013 143.847 41.008 143.996 41.072C144.146 41.1253 144.354 41.168 144.62 41.2L146.828 41.44C147.266 41.4827 147.607 41.568 147.852 41.696C148.108 41.8133 148.29 42.0267 148.396 42.336C148.514 42.6453 148.572 43.1093 148.572 43.728C148.572 44.24 148.508 44.656 148.38 44.976C148.263 45.2853 148.076 45.5253 147.82 45.696C147.564 45.8667 147.25 45.9787 146.876 46.032C146.503 46.096 146.071 46.128 145.58 46.128ZM157.938 46.128C157.277 46.128 156.722 46.0853 156.274 46C155.837 45.9147 155.485 45.776 155.218 45.584C154.952 45.3813 154.749 45.12 154.61 44.8C154.472 44.4693 154.381 44.0693 154.338 43.6C154.296 43.1307 154.274 42.576 154.274 41.936C154.274 41.1787 154.306 40.5333 154.37 40C154.434 39.456 154.578 39.0187 154.802 38.688C155.037 38.3467 155.4 38.1013 155.89 37.952C156.381 37.792 157.042 37.712 157.874 37.712C158.504 37.712 159.016 37.76 159.41 37.856C159.816 37.952 160.136 38.1013 160.37 38.304C160.605 38.5067 160.776 38.7787 160.882 39.12C161 39.4507 161.074 39.8507 161.106 40.32C161.138 40.7787 161.154 41.312 161.154 41.92V42.352H155.57C155.57 42.9067 155.597 43.36 155.65 43.712C155.704 44.064 155.81 44.336 155.97 44.528C156.141 44.72 156.402 44.8533 156.754 44.928C157.117 45.0027 157.608 45.04 158.226 45.04C158.482 45.04 158.765 45.0347 159.074 45.024C159.384 45.0027 159.693 44.976 160.002 44.944C160.312 44.912 160.589 44.88 160.834 44.848V45.904C160.61 45.9467 160.333 45.984 160.002 46.016C159.682 46.048 159.341 46.0747 158.978 46.096C158.626 46.1173 158.28 46.128 157.938 46.128ZM159.89 41.696V41.264C159.89 40.7093 159.858 40.272 159.794 39.952C159.73 39.6213 159.618 39.376 159.458 39.216C159.309 39.0453 159.101 38.9333 158.834 38.88C158.568 38.8267 158.237 38.8 157.842 38.8C157.33 38.8 156.925 38.8373 156.626 38.912C156.328 38.976 156.104 39.0987 155.954 39.28C155.805 39.4613 155.704 39.7227 155.65 40.064C155.597 40.4053 155.57 40.8587 155.57 41.424H160.194L159.89 41.696ZM165.596 46L162.604 37.84H163.964L166.364 44.64H166.492L168.876 37.84H170.22L167.228 46H165.596ZM175.204 46.128C174.543 46.128 173.988 46.0853 173.54 46C173.103 45.9147 172.751 45.776 172.484 45.584C172.217 45.3813 172.015 45.12 171.876 44.8C171.737 44.4693 171.647 44.0693 171.604 43.6C171.561 43.1307 171.54 42.576 171.54 41.936C171.54 41.1787 171.572 40.5333 171.636 40C171.7 39.456 171.844 39.0187 172.068 38.688C172.303 38.3467 172.665 38.1013 173.156 37.952C173.647 37.792 174.308 37.712 175.14 37.712C175.769 37.712 176.281 37.76 176.676 37.856C177.081 37.952 177.401 38.1013 177.636 38.304C177.871 38.5067 178.041 38.7787 178.148 39.12C178.265 39.4507 178.34 39.8507 178.372 40.32C178.404 40.7787 178.42 41.312 178.42 41.92V42.352H172.836C172.836 42.9067 172.863 43.36 172.916 43.712C172.969 44.064 173.076 44.336 173.236 44.528C173.407 44.72 173.668 44.8533 174.02 44.928C174.383 45.0027 174.873 45.04 175.492 45.04C175.748 45.04 176.031 45.0347 176.34 45.024C176.649 45.0027 176.959 44.976 177.268 44.944C177.577 44.912 177.855 44.88 178.1 44.848V45.904C177.876 45.9467 177.599 45.984 177.268 46.016C176.948 46.048 176.607 46.0747 176.244 46.096C175.892 46.1173 175.545 46.128 175.204 46.128ZM177.156 41.696V41.264C177.156 40.7093 177.124 40.272 177.06 39.952C176.996 39.6213 176.884 39.376 176.724 39.216C176.575 39.0453 176.367 38.9333 176.1 38.88C175.833 38.8267 175.503 38.8 175.108 38.8C174.596 38.8 174.191 38.8373 173.892 38.912C173.593 38.976 173.369 39.0987 173.22 39.28C173.071 39.4613 172.969 39.7227 172.916 40.064C172.863 40.4053 172.836 40.8587 172.836 41.424H177.46L177.156 41.696ZM180.814 46V37.84H181.982L182.046 39.408H182.142C182.28 38.9493 182.478 38.5973 182.734 38.352C182.99 38.1067 183.299 37.9413 183.661 37.856C184.024 37.76 184.424 37.712 184.862 37.712V38.992C184.126 38.992 183.56 39.1093 183.166 39.344C182.771 39.5787 182.499 39.9413 182.35 40.432C182.2 40.9227 182.126 41.5413 182.126 42.288V46H180.814ZM189.825 49.296C189.515 49.296 189.19 49.2853 188.849 49.264C188.518 49.2533 188.198 49.2373 187.889 49.216C187.59 49.2053 187.323 49.184 187.089 49.152V48.112C187.441 48.1227 187.761 48.1333 188.049 48.144C188.347 48.1653 188.619 48.176 188.865 48.176C189.121 48.1867 189.35 48.192 189.553 48.192C190.171 48.192 190.657 48.144 191.009 48.048C191.371 47.952 191.638 47.792 191.809 47.568C191.979 47.3547 192.086 47.0667 192.129 46.704C192.182 46.3413 192.209 45.8987 192.209 45.376V44.896H192.113C192.027 45.1093 191.883 45.3067 191.681 45.488C191.478 45.6693 191.201 45.8133 190.849 45.92C190.497 46.0267 190.038 46.08 189.473 46.08C188.875 46.08 188.39 46.0213 188.017 45.904C187.654 45.776 187.377 45.584 187.185 45.328C186.993 45.0613 186.859 44.7307 186.785 44.336C186.721 43.9413 186.689 43.472 186.689 42.928V37.84H188.001V42.464C188.001 43.0187 188.022 43.4613 188.065 43.792C188.107 44.1227 188.198 44.3733 188.337 44.544C188.486 44.704 188.694 44.8107 188.961 44.864C189.227 44.9173 189.574 44.944 190.001 44.944C190.534 44.944 190.95 44.88 191.249 44.752C191.547 44.6133 191.761 44.416 191.889 44.16C192.027 43.904 192.113 43.6 192.145 43.248C192.187 42.8853 192.209 42.48 192.209 42.032V37.84H193.505V44.992C193.505 45.7707 193.462 46.432 193.377 46.976C193.302 47.5307 193.137 47.9733 192.881 48.304C192.635 48.6453 192.267 48.896 191.777 49.056C191.286 49.216 190.635 49.296 189.825 49.296ZM202.704 46.128C202.118 46.128 201.627 46.064 201.232 45.936C200.848 45.808 200.544 45.5893 200.32 45.28C200.096 44.96 199.936 44.528 199.84 43.984C199.744 43.44 199.696 42.7573 199.696 41.936C199.696 41.104 199.739 40.416 199.824 39.872C199.92 39.3173 200.08 38.8853 200.304 38.576C200.528 38.2667 200.832 38.048 201.216 37.92C201.6 37.7813 202.086 37.712 202.672 37.712C203.11 37.712 203.499 37.7493 203.84 37.824C204.182 37.888 204.475 38.0053 204.72 38.176C204.976 38.3467 205.179 38.5813 205.328 38.88H205.408V34.112H206.72V46H205.552L205.488 44.832H205.392C205.243 45.2053 205.024 45.488 204.736 45.68C204.459 45.8613 204.144 45.9787 203.792 46.032C203.44 46.096 203.078 46.128 202.704 46.128ZM203.216 44.976C203.76 44.976 204.192 44.9013 204.512 44.752C204.832 44.6027 205.056 44.368 205.184 44.048C205.291 43.7493 205.355 43.424 205.376 43.072C205.398 42.72 205.408 42.304 205.408 41.824C205.408 41.4293 205.398 41.072 205.376 40.752C205.355 40.4213 205.296 40.1333 205.2 39.888C205.062 39.5253 204.832 39.2693 204.512 39.12C204.192 38.96 203.75 38.88 203.184 38.88C202.704 38.88 202.32 38.912 202.032 38.976C201.744 39.04 201.526 39.1787 201.376 39.392C201.227 39.5947 201.126 39.8987 201.072 40.304C201.019 40.6987 200.992 41.2373 200.992 41.92C200.992 42.6027 201.019 43.1467 201.072 43.552C201.126 43.9573 201.227 44.2613 201.376 44.464C201.526 44.6667 201.744 44.8053 202.032 44.88C202.331 44.944 202.726 44.976 203.216 44.976ZM211.662 46.128C211.064 46.128 210.563 46.0587 210.158 45.92C209.763 45.7813 209.464 45.5413 209.262 45.2C209.07 44.8587 208.974 44.3787 208.974 43.76C208.974 43.1413 209.043 42.656 209.182 42.304C209.331 41.9413 209.587 41.6853 209.95 41.536C210.312 41.3867 210.819 41.312 211.47 41.312C211.576 41.312 211.742 41.3173 211.966 41.328C212.2 41.328 212.467 41.3333 212.766 41.344C213.064 41.344 213.363 41.3493 213.662 41.36C213.971 41.36 214.254 41.3653 214.51 41.376V40.864C214.51 40.384 214.478 40.0107 214.414 39.744C214.36 39.4667 214.243 39.264 214.062 39.136C213.88 38.9973 213.624 38.912 213.294 38.88C212.974 38.8373 212.547 38.816 212.014 38.816C211.779 38.816 211.502 38.8267 211.182 38.848C210.862 38.8587 210.547 38.88 210.238 38.912C209.939 38.9333 209.699 38.96 209.518 38.992V37.936C209.923 37.8613 210.376 37.808 210.878 37.776C211.39 37.7333 211.918 37.712 212.462 37.712C213.038 37.712 213.523 37.7493 213.918 37.824C214.323 37.888 214.648 37.9947 214.894 38.144C215.15 38.2933 215.342 38.4907 215.47 38.736C215.598 38.9813 215.683 39.28 215.726 39.632C215.779 39.984 215.806 40.3947 215.806 40.864V46H214.638L214.59 44.848H214.494C214.323 45.2213 214.078 45.504 213.758 45.696C213.448 45.8773 213.107 45.9947 212.734 46.048C212.36 46.1013 212.003 46.128 211.662 46.128ZM212.142 45.056C212.451 45.056 212.739 45.04 213.006 45.008C213.272 44.9653 213.507 44.8907 213.71 44.784C213.912 44.6773 214.072 44.5173 214.19 44.304C214.307 44.08 214.387 43.84 214.43 43.584C214.483 43.3173 214.51 43.008 214.51 42.656V42.24H211.79C211.374 42.24 211.054 42.272 210.83 42.336C210.606 42.4 210.451 42.5333 210.366 42.736C210.291 42.9387 210.254 43.2427 210.254 43.648C210.254 44.0427 210.302 44.3413 210.398 44.544C210.494 44.7467 210.675 44.8853 210.942 44.96C211.219 45.024 211.619 45.056 212.142 45.056ZM221.715 49.296C221.406 49.296 221.08 49.2853 220.739 49.264C220.408 49.2533 220.088 49.2373 219.779 49.216C219.48 49.2053 219.214 49.184 218.979 49.152V48.112C219.331 48.1227 219.651 48.1333 219.939 48.144C220.238 48.1653 220.51 48.176 220.755 48.176C221.011 48.1867 221.24 48.192 221.443 48.192C222.062 48.192 222.547 48.144 222.899 48.048C223.262 47.952 223.528 47.792 223.699 47.568C223.87 47.3547 223.976 47.0667 224.019 46.704C224.072 46.3413 224.099 45.8987 224.099 45.376V44.896H224.003C223.918 45.1093 223.774 45.3067 223.571 45.488C223.368 45.6693 223.091 45.8133 222.739 45.92C222.387 46.0267 221.928 46.08 221.363 46.08C220.766 46.08 220.28 46.0213 219.907 45.904C219.544 45.776 219.267 45.584 219.075 45.328C218.883 45.0613 218.75 44.7307 218.675 44.336C218.611 43.9413 218.579 43.472 218.579 42.928V37.84H219.891V42.464C219.891 43.0187 219.912 43.4613 219.955 43.792C219.998 44.1227 220.088 44.3733 220.227 44.544C220.376 44.704 220.584 44.8107 220.851 44.864C221.118 44.9173 221.464 44.944 221.891 44.944C222.424 44.944 222.84 44.88 223.139 44.752C223.438 44.6133 223.651 44.416 223.779 44.16C223.918 43.904 224.003 43.6 224.035 43.248C224.078 42.8853 224.099 42.48 224.099 42.032V37.84H225.395V44.992C225.395 45.7707 225.352 46.432 225.267 46.976C225.192 47.5307 225.027 47.9733 224.771 48.304C224.526 48.6453 224.158 48.896 223.667 49.056C223.176 49.216 222.526 49.296 221.715 49.296Z" fill="#909090"/>
<rect x="6.5" y="6.5" width="33" height="44" fill="white" stroke="black"/>
<rect x="43.5" y="6.5" width="6" height="44" fill="white" stroke="black"/>
</svg>
